Patient4_TMGait_0pt7_02_right_14_EMG.mot
version=1
nRows=26
nColumns=33
inDegrees=no
endheader
time	1LAddLong	2LGlutMax	3LGlutMed	4LIliopsoas	5LSemiMemb	6LBicFemLong	7LRecFem	8LVastMed	9LVastLat	10LGasMed	11LTibAnt	12lTibPost	13LPeroneusLong	14LSol	15LExtDigLong	16LFlexDigLong	17RAddLong	18RGlutMax	19RGlutMed	20RIliopsoas	21RSemiMemb	22RBicFemLong	23RRecFem	24RVastMed	25RVastLat	26RGasMed	27RTibAnt	28RTibPost	29RPeroneusLong	30RSol	31RExtDigLong	32RFlexDigLong
15.94	-0.037994	-0.20706	0.17822	-0.002441	-0.11093	0.26749	0.014191	0.004578	-0.023956	-0.034485	-0.009918	0.006866	0.033112	-0.074768	0.011292	-0.00946	0.003662	-0.062714	-0.17578	0.017548	0.098724	0.062561	-0.45639	0.025024	-0.008545	0.00473	-0.42068	-0.013123	0.10559	-0.023193	-0.002747	-0.016327
15.941	-0.03891	-0.15869	0.19623	0.01297	-0.16571	0.066833	0.098419	0.007172	-0.001984	-0.012054	-0.003357	0.003204	0.011749	-0.075073	0.005951	-0.004883	-0.005646	-0.12634	-0.29251	-0.014038	0.089264	0.050964	-0.43732	0.032501	-0.007782	0.005341	-0.41443	-0.007172	-0.042572	0.019836	-0.000458	-0.017395
15.942	-0.017853	-0.16983	0.15579	0.018768	-0.046082	-0.17197	0.072021	-0.010223	0.10407	0.000763	0.001831	0.015106	-0.030365	-0.06485	0.005493	-0.004578	0.005341	-0.074768	-0.35431	-0.048828	0.056458	0.000153	-0.41733	-0.002594	-0.035553	-0.005188	-0.27023	0.000458	-0.17731	-0.041199	-0.002136	-0.011444
15.943	0.044403	-0.15808	0.13412	0.023956	0.14618	-0.26474	-0.00412	-0.019684	0.22476	-0.025482	0.002747	0.001526	-0.045013	-0.062103	0.000458	-0.003357	0.011749	-0.1239	-0.060272	-0.067139	0.039825	-0.06546	-0.46875	0.0354	-0.007019	-0.005798	-0.18616	0.00061	-0.11124	-0.29938	-0.004578	-0.007477
15.944	0.078888	-0.21545	0.066681	0.002594	0.19348	-0.11002	-0.022125	-0.024872	0.31555	-0.034332	0.001678	0.00885	-0.042419	-0.055237	-0.005035	0.001373	0.018921	-0.11307	-0.029907	-0.049438	0.026093	-0.071869	-0.44327	0.00412	-0.011749	-0.008698	-0.10269	-0.034332	-0.1294	-0.48218	-0.001068	-0.005341
15.945	0.075684	-0.19791	-0.009918	-0.002594	0.19608	-0.13382	-0.009155	-0.007019	0.4306	-0.020905	0.001678	0.005646	-0.012665	-0.074463	0.011749	0.028687	0.016937	-0.1561	-0.12222	0.016022	0.04837	-0.012054	-0.48202	0.034027	-0.007324	-0.001373	0.000916	-0.12238	0.031433	-0.1831	-0.000305	-0.002747
15.946	0.08316	-0.2063	-0.10269	0.006561	0.1973	-0.13153	0.04425	-0.001373	0.47318	-0.010376	-0.006104	0.012054	0.042419	-0.063324	0.010681	0.014038	0.015259	-0.1149	-0.14938	0.045319	0.070038	-0.019836	-0.49637	0.014191	0.005035	-0.015869	0.02533	0.012207	-0.22263	0.32181	-0.004578	-0.003967
15.947	0.067749	-0.089111	-0.093842	0.007324	0.1326	-0.12314	0.045166	0.000458	0.43655	0.009003	-0.007935	0.014191	0.061188	-0.034027	-0.021973	0.018005	0.019073	-0.12039	-0.21515	0.032654	0.070801	-0.08316	-0.4895	-0.011139	0.00946	-0.015259	0.009766	0.017242	0.051117	0.24811	-0.002747	-0.006409
15.948	0.03891	-0.02243	-0.050659	-0.013123	0.077972	0.082397	-0.025482	0.017548	0.27359	0.002441	0.001068	0.015106	0.041046	-0.025177	-0.040894	0.01358	0.005646	-0.13275	-0.23346	-0.004425	0.054016	-0.082703	-0.47806	-0.024719	0.009003	-0.011597	0.016174	0.036774	0.18188	0.27206	-0.001373	-0.003967
15.949	0.020599	0.070038	-0.083618	0.018005	0.011292	0.24796	-0.017395	0.0177	-0.090027	-0.00824	0.001068	0.017548	0.084534	-0.019684	-0.038147	0.011749	-0.00824	-0.024109	-0.3801	-0.002899	0.042419	-0.044861	-0.47684	0.003815	0.002441	0.000305	-0.006714	0.005188	0.1033	0.33478	-0.000458	-0.009003
15.95	0.017242	0.081787	-0.1001	0.024567	-0.049744	0.36148	0.023499	-0.004272	-0.31708	0.001526	0.004578	0.012817	0.23636	-0.024414	-0.005798	-0.002441	-0.011597	-0.097656	-0.37735	0.11719	0.056	-0.052948	-0.49881	-0.000763	0.014954	-0.008698	0.023346	-0.001984	-0.15869	0.27496	-0.004425	-0.019226
15.951	0.01297	0.046234	-0.12497	0.013428	-0.067139	0.41306	0.044098	-0.00412	-0.25101	0.008087	0.014496	0.011749	0.23361	-0.005341	0.047607	-0.004425	-0.00351	-0.13596	-0.35645	0.18387	0.066528	-0.059967	-0.53955	0.034485	0.008087	-0.012665	0.037689	-0.005493	-0.24048	0.068512	0.001068	-0.018158
15.952	0.010071	0.035858	-0.056763	0.014801	-0.042419	0.2713	0.010681	0.007629	-0.03006	0.01358	-0.006409	0.012054	0.11795	-0.00885	0.089417	-0.008545	-0.005188	-0.011139	-0.30197	0.088959	0.090942	-0.046082	-0.50995	0.002441	0.005035	-0.012054	0.014801	-0.003052	0.17685	0.021515	-0.001526	-0.013123
15.953	0.004272	0.029602	-0.046692	0.015717	0.017548	0.15213	-0.060883	0.001373	0.03952	0.00473	0.009155	0.014343	-0.17105	0.011597	0.063782	-0.001068	-0.002747	-0.021057	-0.25452	0.005188	0.15015	0.034027	-0.47653	0	-0.002441	-0.00473	0.028076	-0.00351	0.49027	0.27237	-0.001526	-0.011444
15.954	-0.03006	0.10895	0.017395	0.001831	0.10223	0.17334	0.002289	0.019226	-0.10223	-0.016327	0.013123	0.031281	-0.35278	0.03952	0.05722	0.010223	-0.004272	-0.033112	-0.21622	-0.033875	0.20355	0.045624	-0.49881	-0.006714	0.011597	-0.000916	0.05249	-0.012207	0.32852	0.35523	-0.002289	-0.019379
15.955	-0.033722	0.20081	-0.0177	-0.020447	0.044556	0.23056	0.029907	0.019379	-0.22263	-0.05127	-0.017853	0.013123	-0.53909	0.035706	0.050507	0.010529	0.016174	0.004578	-0.13763	0.007935	0.2063	0.014038	-0.48767	-0.013428	-0.014343	0.003357	0.057526	-0.003357	0.096893	0.21652	-0.008545	-0.012054
15.956	-0.054321	0.21927	-0.14984	0.004578	-0.077515	0.34378	-0.10437	0.026398	-0.24536	-0.012512	-0.017853	0.011902	-0.20905	-0.077057	-0.12512	0.003662	0.028839	-0.004883	-0.5423	0.044861	0.20889	0.002747	-0.49179	0.001831	-0.010223	-0.017242	0.046234	-0.009918	0.1236	0.072632	-0.003052	-0.020142
15.957	-0.039825	0.26337	-0.18036	0.034332	-0.16983	0.27344	-0.17395	0.010681	-0.21713	-0.00824	-0.016022	0.009766	0.27481	-0.1178	-0.16541	0.005035	0.023499	-0.039673	-0.63431	-0.015106	0.20844	-0.04776	-0.48706	-0.049591	-0.040131	-0.017242	0.023499	-0.003967	0.086517	0.15991	-0.004272	-0.019531
15.958	-0.042725	0.27908	-0.21439	0.013885	-0.22476	-0.10468	-0.13062	-0.014648	-0.31799	-0.027313	-0.026093	0.014038	0.16892	-0.032043	-0.075378	-0.001221	-0.032806	0.009613	-0.36423	-0.001678	0.18707	-0.081024	-0.51209	-0.03952	-0.018158	-0.011444	0.057526	-0.005951	-0.31677	-0.007019	-0.005493	-0.015564
15.959	0.014038	0.2504	-0.21698	0.00473	-0.1918	-0.15152	-0.04364	-0.055542	-0.58258	-0.049438	-0.015564	0.009766	0.29495	0.00885	-0.08606	-0.002899	-0.034027	-0.001831	0.046539	-0.11383	0.15243	-0.089569	-0.49057	-0.019379	-0.020905	-0.007629	0.25467	-0.003662	-0.60684	-0.057068	-0.009003	-0.013733
15.96	0.019684	0.25543	-0.23499	0.010223	0.067902	-0.18814	0.058899	-0.084686	-0.62943	-0.056152	-0.015411	0.009308	0.32608	-0.023193	-0.15213	0.002747	-0.03006	-0.007477	-0.25101	-0.20462	0.15472	-0.11444	-0.4837	-0.010376	-0.02121	-0.011292	0.42679	-0.003052	-0.20309	-0.2446	-0.005798	-0.017242
15.961	0.060272	0.22156	-0.11704	0.001984	0.19989	-0.34439	0.080414	-0.07431	-0.47104	-0.059357	-0.012817	0.009308	0.2272	-0.088501	-0.097809	0.005341	-0.032959	0.046082	-0.32059	-0.16235	0.14755	-0.049744	-0.52521	0.016632	-0.011597	-0.007019	0.46371	-0.007324	-0.13626	-0.31479	-0.002747	-0.010376
15.962	0.045471	0.30289	0.068512	0.005341	0.20508	-0.48813	0.06897	-0.045471	-0.22079	-0.019226	0.020752	0.005035	-0.095062	-0.11536	0.030518	0.006866	-0.030823	0.045776	-0.19165	-0.10132	0.15076	0.00412	-0.54535	0.014954	-0.0354	-0.00946	0.37155	-0.004425	0.92041	-0.21103	0.002747	-0.015564
15.963	0.057678	0.37354	0.28229	0.021667	0.20142	-0.30121	0.055237	-0.027466	-0.050964	-0.026245	0.057373	0.007324	-0.35843	-0.083771	0.14969	0.009918	0.000458	0.053101	-0.023346	-0.053101	0.17227	-0.012512	-0.52811	-0.033264	-0.033569	-0.011292	-0.085297	-0.007782	0.19012	-0.1648	-0.003357	-0.014038
15.964	0.05722	0.43518	0.16739	0.004578	0.11688	0.24414	-0.052185	-0.010223	0.053864	-0.013733	0.040588	0.005188	-0.05661	-0.089569	0.14282	0.014496	0.028076	0.025024	-0.009613	0.008698	0.19073	-0.000153	-0.4985	0.005646	-0.016479	-0.010834	-0.7753	-0.007019	-0.12177	-0.15015	-0.003815	-0.017242
15.965	0.028992	0.50522	0.09201	0.021362	0.024567	0.27573	-0.073853	-0.020294	-0.003662	-0.018463	0.043335	0.001526	-0.011597	-0.014648	0.11246	0.003204	0.027008	0.015869	-0.049286	0.034943	0.21088	0.042267	-0.53238	0.044556	-0.013428	-0.010834	-0.65308	-0.003357	0.65643	-0.18509	-0.000305	-0.018158
